G04 #@! TF.GenerationSoftware,KiCad,Pcbnew,(5.1.10)-1*
G04 #@! TF.CreationDate,2021-08-01T16:11:52+09:00*
G04 #@! TF.ProjectId,IP2721_15V,49503237-3231-45f3-9135-562e6b696361,rev?*
G04 #@! TF.SameCoordinates,Original*
G04 #@! TF.FileFunction,Soldermask,Top*
G04 #@! TF.FilePolarity,Negative*
%FSLAX46Y46*%
G04 Gerber Fmt 4.6, Leading zero omitted, Abs format (unit mm)*
G04 Created by KiCad (PCBNEW (5.1.10)-1) date 2021-08-01 16:11:52*
%MOMM*%
%LPD*%
G01*
G04 APERTURE LIST*
%ADD10C,0.010000*%
%ADD11C,0.100000*%
%ADD12R,0.750000X0.800000*%
%ADD13R,1.150000X0.700000*%
%ADD14R,1.150000X0.800000*%
%ADD15R,1.150000X0.900000*%
%ADD16O,1.700000X1.700000*%
%ADD17R,1.700000X1.700000*%
%ADD18R,0.900000X0.500000*%
%ADD19R,0.863600X0.304800*%
%ADD20R,0.450000X1.500000*%
G04 APERTURE END LIST*
D10*
G36*
X137900000Y-75680000D02*
G01*
X137890000Y-75680000D01*
X137890000Y-76280000D01*
X137550000Y-76280000D01*
X137518598Y-76279178D01*
X137487283Y-76276713D01*
X137456139Y-76272613D01*
X137425253Y-76266889D01*
X137394709Y-76259555D01*
X137364590Y-76250634D01*
X137334979Y-76240148D01*
X137305958Y-76228127D01*
X137277606Y-76214604D01*
X137250000Y-76199615D01*
X137223217Y-76183202D01*
X137197329Y-76165410D01*
X137172408Y-76146288D01*
X137148522Y-76125887D01*
X137125736Y-76104264D01*
X137104113Y-76081478D01*
X137083712Y-76057592D01*
X137064590Y-76032671D01*
X137046798Y-76006783D01*
X137030385Y-75980000D01*
X137015396Y-75952394D01*
X137001873Y-75924042D01*
X136989852Y-75895021D01*
X136979366Y-75865410D01*
X136970445Y-75835291D01*
X136963111Y-75804747D01*
X136957387Y-75773861D01*
X136953287Y-75742717D01*
X136950822Y-75711402D01*
X136950000Y-75680000D01*
X136950822Y-75648598D01*
X136953287Y-75617283D01*
X136957387Y-75586139D01*
X136963111Y-75555253D01*
X136970445Y-75524709D01*
X136979366Y-75494590D01*
X136989852Y-75464979D01*
X137001873Y-75435958D01*
X137015396Y-75407606D01*
X137030385Y-75380000D01*
X137046798Y-75353217D01*
X137064590Y-75327329D01*
X137083712Y-75302408D01*
X137104113Y-75278522D01*
X137125736Y-75255736D01*
X137148522Y-75234113D01*
X137172408Y-75213712D01*
X137197329Y-75194590D01*
X137223217Y-75176798D01*
X137250000Y-75160385D01*
X137277606Y-75145396D01*
X137305958Y-75131873D01*
X137334979Y-75119852D01*
X137364590Y-75109366D01*
X137394709Y-75100445D01*
X137425253Y-75093111D01*
X137456139Y-75087387D01*
X137487283Y-75083287D01*
X137518598Y-75080822D01*
X137550000Y-75080000D01*
X138250000Y-75080000D01*
X138281402Y-75080822D01*
X138312717Y-75083287D01*
X138343861Y-75087387D01*
X138374747Y-75093111D01*
X138405291Y-75100445D01*
X138435410Y-75109366D01*
X138465021Y-75119852D01*
X138494042Y-75131873D01*
X138522394Y-75145396D01*
X138550000Y-75160385D01*
X138576783Y-75176798D01*
X138602671Y-75194590D01*
X138627592Y-75213712D01*
X138651478Y-75234113D01*
X138674264Y-75255736D01*
X138695887Y-75278522D01*
X138716288Y-75302408D01*
X138735410Y-75327329D01*
X138753202Y-75353217D01*
X138769615Y-75380000D01*
X138784604Y-75407606D01*
X138798127Y-75435958D01*
X138810148Y-75464979D01*
X138820634Y-75494590D01*
X138829555Y-75524709D01*
X138836889Y-75555253D01*
X138842613Y-75586139D01*
X138846713Y-75617283D01*
X138849178Y-75648598D01*
X138850000Y-75680000D01*
X138849178Y-75711402D01*
X138846713Y-75742717D01*
X138842613Y-75773861D01*
X138836889Y-75804747D01*
X138829555Y-75835291D01*
X138820634Y-75865410D01*
X138810148Y-75895021D01*
X138798127Y-75924042D01*
X138784604Y-75952394D01*
X138769615Y-75980000D01*
X138753202Y-76006783D01*
X138735410Y-76032671D01*
X138716288Y-76057592D01*
X138695887Y-76081478D01*
X138674264Y-76104264D01*
X138651478Y-76125887D01*
X138627592Y-76146288D01*
X138602671Y-76165410D01*
X138576783Y-76183202D01*
X138550000Y-76199615D01*
X138522394Y-76214604D01*
X138494042Y-76228127D01*
X138465021Y-76240148D01*
X138435410Y-76250634D01*
X138405291Y-76259555D01*
X138374747Y-76266889D01*
X138343861Y-76272613D01*
X138312717Y-76276713D01*
X138281402Y-76279178D01*
X138250000Y-76280000D01*
X137900000Y-76280000D01*
X137900000Y-75680000D01*
G37*
X137900000Y-75680000D02*
X137890000Y-75680000D01*
X137890000Y-76280000D01*
X137550000Y-76280000D01*
X137518598Y-76279178D01*
X137487283Y-76276713D01*
X137456139Y-76272613D01*
X137425253Y-76266889D01*
X137394709Y-76259555D01*
X137364590Y-76250634D01*
X137334979Y-76240148D01*
X137305958Y-76228127D01*
X137277606Y-76214604D01*
X137250000Y-76199615D01*
X137223217Y-76183202D01*
X137197329Y-76165410D01*
X137172408Y-76146288D01*
X137148522Y-76125887D01*
X137125736Y-76104264D01*
X137104113Y-76081478D01*
X137083712Y-76057592D01*
X137064590Y-76032671D01*
X137046798Y-76006783D01*
X137030385Y-75980000D01*
X137015396Y-75952394D01*
X137001873Y-75924042D01*
X136989852Y-75895021D01*
X136979366Y-75865410D01*
X136970445Y-75835291D01*
X136963111Y-75804747D01*
X136957387Y-75773861D01*
X136953287Y-75742717D01*
X136950822Y-75711402D01*
X136950000Y-75680000D01*
X136950822Y-75648598D01*
X136953287Y-75617283D01*
X136957387Y-75586139D01*
X136963111Y-75555253D01*
X136970445Y-75524709D01*
X136979366Y-75494590D01*
X136989852Y-75464979D01*
X137001873Y-75435958D01*
X137015396Y-75407606D01*
X137030385Y-75380000D01*
X137046798Y-75353217D01*
X137064590Y-75327329D01*
X137083712Y-75302408D01*
X137104113Y-75278522D01*
X137125736Y-75255736D01*
X137148522Y-75234113D01*
X137172408Y-75213712D01*
X137197329Y-75194590D01*
X137223217Y-75176798D01*
X137250000Y-75160385D01*
X137277606Y-75145396D01*
X137305958Y-75131873D01*
X137334979Y-75119852D01*
X137364590Y-75109366D01*
X137394709Y-75100445D01*
X137425253Y-75093111D01*
X137456139Y-75087387D01*
X137487283Y-75083287D01*
X137518598Y-75080822D01*
X137550000Y-75080000D01*
X138250000Y-75080000D01*
X138281402Y-75080822D01*
X138312717Y-75083287D01*
X138343861Y-75087387D01*
X138374747Y-75093111D01*
X138405291Y-75100445D01*
X138435410Y-75109366D01*
X138465021Y-75119852D01*
X138494042Y-75131873D01*
X138522394Y-75145396D01*
X138550000Y-75160385D01*
X138576783Y-75176798D01*
X138602671Y-75194590D01*
X138627592Y-75213712D01*
X138651478Y-75234113D01*
X138674264Y-75255736D01*
X138695887Y-75278522D01*
X138716288Y-75302408D01*
X138735410Y-75327329D01*
X138753202Y-75353217D01*
X138769615Y-75380000D01*
X138784604Y-75407606D01*
X138798127Y-75435958D01*
X138810148Y-75464979D01*
X138820634Y-75494590D01*
X138829555Y-75524709D01*
X138836889Y-75555253D01*
X138842613Y-75586139D01*
X138846713Y-75617283D01*
X138849178Y-75648598D01*
X138850000Y-75680000D01*
X138849178Y-75711402D01*
X138846713Y-75742717D01*
X138842613Y-75773861D01*
X138836889Y-75804747D01*
X138829555Y-75835291D01*
X138820634Y-75865410D01*
X138810148Y-75895021D01*
X138798127Y-75924042D01*
X138784604Y-75952394D01*
X138769615Y-75980000D01*
X138753202Y-76006783D01*
X138735410Y-76032671D01*
X138716288Y-76057592D01*
X138695887Y-76081478D01*
X138674264Y-76104264D01*
X138651478Y-76125887D01*
X138627592Y-76146288D01*
X138602671Y-76165410D01*
X138576783Y-76183202D01*
X138550000Y-76199615D01*
X138522394Y-76214604D01*
X138494042Y-76228127D01*
X138465021Y-76240148D01*
X138435410Y-76250634D01*
X138405291Y-76259555D01*
X138374747Y-76266889D01*
X138343861Y-76272613D01*
X138312717Y-76276713D01*
X138281402Y-76279178D01*
X138250000Y-76280000D01*
X137900000Y-76280000D01*
X137900000Y-75680000D01*
G36*
X137900000Y-84320000D02*
G01*
X137890000Y-84320000D01*
X137890000Y-84920000D01*
X137550000Y-84920000D01*
X137518598Y-84919178D01*
X137487283Y-84916713D01*
X137456139Y-84912613D01*
X137425253Y-84906889D01*
X137394709Y-84899555D01*
X137364590Y-84890634D01*
X137334979Y-84880148D01*
X137305958Y-84868127D01*
X137277606Y-84854604D01*
X137250000Y-84839615D01*
X137223217Y-84823202D01*
X137197329Y-84805410D01*
X137172408Y-84786288D01*
X137148522Y-84765887D01*
X137125736Y-84744264D01*
X137104113Y-84721478D01*
X137083712Y-84697592D01*
X137064590Y-84672671D01*
X137046798Y-84646783D01*
X137030385Y-84620000D01*
X137015396Y-84592394D01*
X137001873Y-84564042D01*
X136989852Y-84535021D01*
X136979366Y-84505410D01*
X136970445Y-84475291D01*
X136963111Y-84444747D01*
X136957387Y-84413861D01*
X136953287Y-84382717D01*
X136950822Y-84351402D01*
X136950000Y-84320000D01*
X136950822Y-84288598D01*
X136953287Y-84257283D01*
X136957387Y-84226139D01*
X136963111Y-84195253D01*
X136970445Y-84164709D01*
X136979366Y-84134590D01*
X136989852Y-84104979D01*
X137001873Y-84075958D01*
X137015396Y-84047606D01*
X137030385Y-84020000D01*
X137046798Y-83993217D01*
X137064590Y-83967329D01*
X137083712Y-83942408D01*
X137104113Y-83918522D01*
X137125736Y-83895736D01*
X137148522Y-83874113D01*
X137172408Y-83853712D01*
X137197329Y-83834590D01*
X137223217Y-83816798D01*
X137250000Y-83800385D01*
X137277606Y-83785396D01*
X137305958Y-83771873D01*
X137334979Y-83759852D01*
X137364590Y-83749366D01*
X137394709Y-83740445D01*
X137425253Y-83733111D01*
X137456139Y-83727387D01*
X137487283Y-83723287D01*
X137518598Y-83720822D01*
X137550000Y-83720000D01*
X138250000Y-83720000D01*
X138281402Y-83720822D01*
X138312717Y-83723287D01*
X138343861Y-83727387D01*
X138374747Y-83733111D01*
X138405291Y-83740445D01*
X138435410Y-83749366D01*
X138465021Y-83759852D01*
X138494042Y-83771873D01*
X138522394Y-83785396D01*
X138550000Y-83800385D01*
X138576783Y-83816798D01*
X138602671Y-83834590D01*
X138627592Y-83853712D01*
X138651478Y-83874113D01*
X138674264Y-83895736D01*
X138695887Y-83918522D01*
X138716288Y-83942408D01*
X138735410Y-83967329D01*
X138753202Y-83993217D01*
X138769615Y-84020000D01*
X138784604Y-84047606D01*
X138798127Y-84075958D01*
X138810148Y-84104979D01*
X138820634Y-84134590D01*
X138829555Y-84164709D01*
X138836889Y-84195253D01*
X138842613Y-84226139D01*
X138846713Y-84257283D01*
X138849178Y-84288598D01*
X138850000Y-84320000D01*
X138849178Y-84351402D01*
X138846713Y-84382717D01*
X138842613Y-84413861D01*
X138836889Y-84444747D01*
X138829555Y-84475291D01*
X138820634Y-84505410D01*
X138810148Y-84535021D01*
X138798127Y-84564042D01*
X138784604Y-84592394D01*
X138769615Y-84620000D01*
X138753202Y-84646783D01*
X138735410Y-84672671D01*
X138716288Y-84697592D01*
X138695887Y-84721478D01*
X138674264Y-84744264D01*
X138651478Y-84765887D01*
X138627592Y-84786288D01*
X138602671Y-84805410D01*
X138576783Y-84823202D01*
X138550000Y-84839615D01*
X138522394Y-84854604D01*
X138494042Y-84868127D01*
X138465021Y-84880148D01*
X138435410Y-84890634D01*
X138405291Y-84899555D01*
X138374747Y-84906889D01*
X138343861Y-84912613D01*
X138312717Y-84916713D01*
X138281402Y-84919178D01*
X138250000Y-84920000D01*
X137900000Y-84920000D01*
X137900000Y-84320000D01*
G37*
X137900000Y-84320000D02*
X137890000Y-84320000D01*
X137890000Y-84920000D01*
X137550000Y-84920000D01*
X137518598Y-84919178D01*
X137487283Y-84916713D01*
X137456139Y-84912613D01*
X137425253Y-84906889D01*
X137394709Y-84899555D01*
X137364590Y-84890634D01*
X137334979Y-84880148D01*
X137305958Y-84868127D01*
X137277606Y-84854604D01*
X137250000Y-84839615D01*
X137223217Y-84823202D01*
X137197329Y-84805410D01*
X137172408Y-84786288D01*
X137148522Y-84765887D01*
X137125736Y-84744264D01*
X137104113Y-84721478D01*
X137083712Y-84697592D01*
X137064590Y-84672671D01*
X137046798Y-84646783D01*
X137030385Y-84620000D01*
X137015396Y-84592394D01*
X137001873Y-84564042D01*
X136989852Y-84535021D01*
X136979366Y-84505410D01*
X136970445Y-84475291D01*
X136963111Y-84444747D01*
X136957387Y-84413861D01*
X136953287Y-84382717D01*
X136950822Y-84351402D01*
X136950000Y-84320000D01*
X136950822Y-84288598D01*
X136953287Y-84257283D01*
X136957387Y-84226139D01*
X136963111Y-84195253D01*
X136970445Y-84164709D01*
X136979366Y-84134590D01*
X136989852Y-84104979D01*
X137001873Y-84075958D01*
X137015396Y-84047606D01*
X137030385Y-84020000D01*
X137046798Y-83993217D01*
X137064590Y-83967329D01*
X137083712Y-83942408D01*
X137104113Y-83918522D01*
X137125736Y-83895736D01*
X137148522Y-83874113D01*
X137172408Y-83853712D01*
X137197329Y-83834590D01*
X137223217Y-83816798D01*
X137250000Y-83800385D01*
X137277606Y-83785396D01*
X137305958Y-83771873D01*
X137334979Y-83759852D01*
X137364590Y-83749366D01*
X137394709Y-83740445D01*
X137425253Y-83733111D01*
X137456139Y-83727387D01*
X137487283Y-83723287D01*
X137518598Y-83720822D01*
X137550000Y-83720000D01*
X138250000Y-83720000D01*
X138281402Y-83720822D01*
X138312717Y-83723287D01*
X138343861Y-83727387D01*
X138374747Y-83733111D01*
X138405291Y-83740445D01*
X138435410Y-83749366D01*
X138465021Y-83759852D01*
X138494042Y-83771873D01*
X138522394Y-83785396D01*
X138550000Y-83800385D01*
X138576783Y-83816798D01*
X138602671Y-83834590D01*
X138627592Y-83853712D01*
X138651478Y-83874113D01*
X138674264Y-83895736D01*
X138695887Y-83918522D01*
X138716288Y-83942408D01*
X138735410Y-83967329D01*
X138753202Y-83993217D01*
X138769615Y-84020000D01*
X138784604Y-84047606D01*
X138798127Y-84075958D01*
X138810148Y-84104979D01*
X138820634Y-84134590D01*
X138829555Y-84164709D01*
X138836889Y-84195253D01*
X138842613Y-84226139D01*
X138846713Y-84257283D01*
X138849178Y-84288598D01*
X138850000Y-84320000D01*
X138849178Y-84351402D01*
X138846713Y-84382717D01*
X138842613Y-84413861D01*
X138836889Y-84444747D01*
X138829555Y-84475291D01*
X138820634Y-84505410D01*
X138810148Y-84535021D01*
X138798127Y-84564042D01*
X138784604Y-84592394D01*
X138769615Y-84620000D01*
X138753202Y-84646783D01*
X138735410Y-84672671D01*
X138716288Y-84697592D01*
X138695887Y-84721478D01*
X138674264Y-84744264D01*
X138651478Y-84765887D01*
X138627592Y-84786288D01*
X138602671Y-84805410D01*
X138576783Y-84823202D01*
X138550000Y-84839615D01*
X138522394Y-84854604D01*
X138494042Y-84868127D01*
X138465021Y-84880148D01*
X138435410Y-84890634D01*
X138405291Y-84899555D01*
X138374747Y-84906889D01*
X138343861Y-84912613D01*
X138312717Y-84916713D01*
X138281402Y-84919178D01*
X138250000Y-84920000D01*
X137900000Y-84920000D01*
X137900000Y-84320000D01*
G36*
X134100000Y-75680000D02*
G01*
X134090000Y-75680000D01*
X134090000Y-76280000D01*
X133750000Y-76280000D01*
X133718598Y-76279178D01*
X133687283Y-76276713D01*
X133656139Y-76272613D01*
X133625253Y-76266889D01*
X133594709Y-76259555D01*
X133564590Y-76250634D01*
X133534979Y-76240148D01*
X133505958Y-76228127D01*
X133477606Y-76214604D01*
X133450000Y-76199615D01*
X133423217Y-76183202D01*
X133397329Y-76165410D01*
X133372408Y-76146288D01*
X133348522Y-76125887D01*
X133325736Y-76104264D01*
X133304113Y-76081478D01*
X133283712Y-76057592D01*
X133264590Y-76032671D01*
X133246798Y-76006783D01*
X133230385Y-75980000D01*
X133215396Y-75952394D01*
X133201873Y-75924042D01*
X133189852Y-75895021D01*
X133179366Y-75865410D01*
X133170445Y-75835291D01*
X133163111Y-75804747D01*
X133157387Y-75773861D01*
X133153287Y-75742717D01*
X133150822Y-75711402D01*
X133150000Y-75680000D01*
X133150822Y-75648598D01*
X133153287Y-75617283D01*
X133157387Y-75586139D01*
X133163111Y-75555253D01*
X133170445Y-75524709D01*
X133179366Y-75494590D01*
X133189852Y-75464979D01*
X133201873Y-75435958D01*
X133215396Y-75407606D01*
X133230385Y-75380000D01*
X133246798Y-75353217D01*
X133264590Y-75327329D01*
X133283712Y-75302408D01*
X133304113Y-75278522D01*
X133325736Y-75255736D01*
X133348522Y-75234113D01*
X133372408Y-75213712D01*
X133397329Y-75194590D01*
X133423217Y-75176798D01*
X133450000Y-75160385D01*
X133477606Y-75145396D01*
X133505958Y-75131873D01*
X133534979Y-75119852D01*
X133564590Y-75109366D01*
X133594709Y-75100445D01*
X133625253Y-75093111D01*
X133656139Y-75087387D01*
X133687283Y-75083287D01*
X133718598Y-75080822D01*
X133750000Y-75080000D01*
X134450000Y-75080000D01*
X134481402Y-75080822D01*
X134512717Y-75083287D01*
X134543861Y-75087387D01*
X134574747Y-75093111D01*
X134605291Y-75100445D01*
X134635410Y-75109366D01*
X134665021Y-75119852D01*
X134694042Y-75131873D01*
X134722394Y-75145396D01*
X134750000Y-75160385D01*
X134776783Y-75176798D01*
X134802671Y-75194590D01*
X134827592Y-75213712D01*
X134851478Y-75234113D01*
X134874264Y-75255736D01*
X134895887Y-75278522D01*
X134916288Y-75302408D01*
X134935410Y-75327329D01*
X134953202Y-75353217D01*
X134969615Y-75380000D01*
X134984604Y-75407606D01*
X134998127Y-75435958D01*
X135010148Y-75464979D01*
X135020634Y-75494590D01*
X135029555Y-75524709D01*
X135036889Y-75555253D01*
X135042613Y-75586139D01*
X135046713Y-75617283D01*
X135049178Y-75648598D01*
X135050000Y-75680000D01*
X135049178Y-75711402D01*
X135046713Y-75742717D01*
X135042613Y-75773861D01*
X135036889Y-75804747D01*
X135029555Y-75835291D01*
X135020634Y-75865410D01*
X135010148Y-75895021D01*
X134998127Y-75924042D01*
X134984604Y-75952394D01*
X134969615Y-75980000D01*
X134953202Y-76006783D01*
X134935410Y-76032671D01*
X134916288Y-76057592D01*
X134895887Y-76081478D01*
X134874264Y-76104264D01*
X134851478Y-76125887D01*
X134827592Y-76146288D01*
X134802671Y-76165410D01*
X134776783Y-76183202D01*
X134750000Y-76199615D01*
X134722394Y-76214604D01*
X134694042Y-76228127D01*
X134665021Y-76240148D01*
X134635410Y-76250634D01*
X134605291Y-76259555D01*
X134574747Y-76266889D01*
X134543861Y-76272613D01*
X134512717Y-76276713D01*
X134481402Y-76279178D01*
X134450000Y-76280000D01*
X134100000Y-76280000D01*
X134100000Y-75680000D01*
G37*
X134100000Y-75680000D02*
X134090000Y-75680000D01*
X134090000Y-76280000D01*
X133750000Y-76280000D01*
X133718598Y-76279178D01*
X133687283Y-76276713D01*
X133656139Y-76272613D01*
X133625253Y-76266889D01*
X133594709Y-76259555D01*
X133564590Y-76250634D01*
X133534979Y-76240148D01*
X133505958Y-76228127D01*
X133477606Y-76214604D01*
X133450000Y-76199615D01*
X133423217Y-76183202D01*
X133397329Y-76165410D01*
X133372408Y-76146288D01*
X133348522Y-76125887D01*
X133325736Y-76104264D01*
X133304113Y-76081478D01*
X133283712Y-76057592D01*
X133264590Y-76032671D01*
X133246798Y-76006783D01*
X133230385Y-75980000D01*
X133215396Y-75952394D01*
X133201873Y-75924042D01*
X133189852Y-75895021D01*
X133179366Y-75865410D01*
X133170445Y-75835291D01*
X133163111Y-75804747D01*
X133157387Y-75773861D01*
X133153287Y-75742717D01*
X133150822Y-75711402D01*
X133150000Y-75680000D01*
X133150822Y-75648598D01*
X133153287Y-75617283D01*
X133157387Y-75586139D01*
X133163111Y-75555253D01*
X133170445Y-75524709D01*
X133179366Y-75494590D01*
X133189852Y-75464979D01*
X133201873Y-75435958D01*
X133215396Y-75407606D01*
X133230385Y-75380000D01*
X133246798Y-75353217D01*
X133264590Y-75327329D01*
X133283712Y-75302408D01*
X133304113Y-75278522D01*
X133325736Y-75255736D01*
X133348522Y-75234113D01*
X133372408Y-75213712D01*
X133397329Y-75194590D01*
X133423217Y-75176798D01*
X133450000Y-75160385D01*
X133477606Y-75145396D01*
X133505958Y-75131873D01*
X133534979Y-75119852D01*
X133564590Y-75109366D01*
X133594709Y-75100445D01*
X133625253Y-75093111D01*
X133656139Y-75087387D01*
X133687283Y-75083287D01*
X133718598Y-75080822D01*
X133750000Y-75080000D01*
X134450000Y-75080000D01*
X134481402Y-75080822D01*
X134512717Y-75083287D01*
X134543861Y-75087387D01*
X134574747Y-75093111D01*
X134605291Y-75100445D01*
X134635410Y-75109366D01*
X134665021Y-75119852D01*
X134694042Y-75131873D01*
X134722394Y-75145396D01*
X134750000Y-75160385D01*
X134776783Y-75176798D01*
X134802671Y-75194590D01*
X134827592Y-75213712D01*
X134851478Y-75234113D01*
X134874264Y-75255736D01*
X134895887Y-75278522D01*
X134916288Y-75302408D01*
X134935410Y-75327329D01*
X134953202Y-75353217D01*
X134969615Y-75380000D01*
X134984604Y-75407606D01*
X134998127Y-75435958D01*
X135010148Y-75464979D01*
X135020634Y-75494590D01*
X135029555Y-75524709D01*
X135036889Y-75555253D01*
X135042613Y-75586139D01*
X135046713Y-75617283D01*
X135049178Y-75648598D01*
X135050000Y-75680000D01*
X135049178Y-75711402D01*
X135046713Y-75742717D01*
X135042613Y-75773861D01*
X135036889Y-75804747D01*
X135029555Y-75835291D01*
X135020634Y-75865410D01*
X135010148Y-75895021D01*
X134998127Y-75924042D01*
X134984604Y-75952394D01*
X134969615Y-75980000D01*
X134953202Y-76006783D01*
X134935410Y-76032671D01*
X134916288Y-76057592D01*
X134895887Y-76081478D01*
X134874264Y-76104264D01*
X134851478Y-76125887D01*
X134827592Y-76146288D01*
X134802671Y-76165410D01*
X134776783Y-76183202D01*
X134750000Y-76199615D01*
X134722394Y-76214604D01*
X134694042Y-76228127D01*
X134665021Y-76240148D01*
X134635410Y-76250634D01*
X134605291Y-76259555D01*
X134574747Y-76266889D01*
X134543861Y-76272613D01*
X134512717Y-76276713D01*
X134481402Y-76279178D01*
X134450000Y-76280000D01*
X134100000Y-76280000D01*
X134100000Y-75680000D01*
G36*
X134100000Y-84320000D02*
G01*
X134090000Y-84320000D01*
X134090000Y-84920000D01*
X133750000Y-84920000D01*
X133718598Y-84919178D01*
X133687283Y-84916713D01*
X133656139Y-84912613D01*
X133625253Y-84906889D01*
X133594709Y-84899555D01*
X133564590Y-84890634D01*
X133534979Y-84880148D01*
X133505958Y-84868127D01*
X133477606Y-84854604D01*
X133450000Y-84839615D01*
X133423217Y-84823202D01*
X133397329Y-84805410D01*
X133372408Y-84786288D01*
X133348522Y-84765887D01*
X133325736Y-84744264D01*
X133304113Y-84721478D01*
X133283712Y-84697592D01*
X133264590Y-84672671D01*
X133246798Y-84646783D01*
X133230385Y-84620000D01*
X133215396Y-84592394D01*
X133201873Y-84564042D01*
X133189852Y-84535021D01*
X133179366Y-84505410D01*
X133170445Y-84475291D01*
X133163111Y-84444747D01*
X133157387Y-84413861D01*
X133153287Y-84382717D01*
X133150822Y-84351402D01*
X133150000Y-84320000D01*
X133150822Y-84288598D01*
X133153287Y-84257283D01*
X133157387Y-84226139D01*
X133163111Y-84195253D01*
X133170445Y-84164709D01*
X133179366Y-84134590D01*
X133189852Y-84104979D01*
X133201873Y-84075958D01*
X133215396Y-84047606D01*
X133230385Y-84020000D01*
X133246798Y-83993217D01*
X133264590Y-83967329D01*
X133283712Y-83942408D01*
X133304113Y-83918522D01*
X133325736Y-83895736D01*
X133348522Y-83874113D01*
X133372408Y-83853712D01*
X133397329Y-83834590D01*
X133423217Y-83816798D01*
X133450000Y-83800385D01*
X133477606Y-83785396D01*
X133505958Y-83771873D01*
X133534979Y-83759852D01*
X133564590Y-83749366D01*
X133594709Y-83740445D01*
X133625253Y-83733111D01*
X133656139Y-83727387D01*
X133687283Y-83723287D01*
X133718598Y-83720822D01*
X133750000Y-83720000D01*
X134450000Y-83720000D01*
X134481402Y-83720822D01*
X134512717Y-83723287D01*
X134543861Y-83727387D01*
X134574747Y-83733111D01*
X134605291Y-83740445D01*
X134635410Y-83749366D01*
X134665021Y-83759852D01*
X134694042Y-83771873D01*
X134722394Y-83785396D01*
X134750000Y-83800385D01*
X134776783Y-83816798D01*
X134802671Y-83834590D01*
X134827592Y-83853712D01*
X134851478Y-83874113D01*
X134874264Y-83895736D01*
X134895887Y-83918522D01*
X134916288Y-83942408D01*
X134935410Y-83967329D01*
X134953202Y-83993217D01*
X134969615Y-84020000D01*
X134984604Y-84047606D01*
X134998127Y-84075958D01*
X135010148Y-84104979D01*
X135020634Y-84134590D01*
X135029555Y-84164709D01*
X135036889Y-84195253D01*
X135042613Y-84226139D01*
X135046713Y-84257283D01*
X135049178Y-84288598D01*
X135050000Y-84320000D01*
X135049178Y-84351402D01*
X135046713Y-84382717D01*
X135042613Y-84413861D01*
X135036889Y-84444747D01*
X135029555Y-84475291D01*
X135020634Y-84505410D01*
X135010148Y-84535021D01*
X134998127Y-84564042D01*
X134984604Y-84592394D01*
X134969615Y-84620000D01*
X134953202Y-84646783D01*
X134935410Y-84672671D01*
X134916288Y-84697592D01*
X134895887Y-84721478D01*
X134874264Y-84744264D01*
X134851478Y-84765887D01*
X134827592Y-84786288D01*
X134802671Y-84805410D01*
X134776783Y-84823202D01*
X134750000Y-84839615D01*
X134722394Y-84854604D01*
X134694042Y-84868127D01*
X134665021Y-84880148D01*
X134635410Y-84890634D01*
X134605291Y-84899555D01*
X134574747Y-84906889D01*
X134543861Y-84912613D01*
X134512717Y-84916713D01*
X134481402Y-84919178D01*
X134450000Y-84920000D01*
X134100000Y-84920000D01*
X134100000Y-84320000D01*
G37*
X134100000Y-84320000D02*
X134090000Y-84320000D01*
X134090000Y-84920000D01*
X133750000Y-84920000D01*
X133718598Y-84919178D01*
X133687283Y-84916713D01*
X133656139Y-84912613D01*
X133625253Y-84906889D01*
X133594709Y-84899555D01*
X133564590Y-84890634D01*
X133534979Y-84880148D01*
X133505958Y-84868127D01*
X133477606Y-84854604D01*
X133450000Y-84839615D01*
X133423217Y-84823202D01*
X133397329Y-84805410D01*
X133372408Y-84786288D01*
X133348522Y-84765887D01*
X133325736Y-84744264D01*
X133304113Y-84721478D01*
X133283712Y-84697592D01*
X133264590Y-84672671D01*
X133246798Y-84646783D01*
X133230385Y-84620000D01*
X133215396Y-84592394D01*
X133201873Y-84564042D01*
X133189852Y-84535021D01*
X133179366Y-84505410D01*
X133170445Y-84475291D01*
X133163111Y-84444747D01*
X133157387Y-84413861D01*
X133153287Y-84382717D01*
X133150822Y-84351402D01*
X133150000Y-84320000D01*
X133150822Y-84288598D01*
X133153287Y-84257283D01*
X133157387Y-84226139D01*
X133163111Y-84195253D01*
X133170445Y-84164709D01*
X133179366Y-84134590D01*
X133189852Y-84104979D01*
X133201873Y-84075958D01*
X133215396Y-84047606D01*
X133230385Y-84020000D01*
X133246798Y-83993217D01*
X133264590Y-83967329D01*
X133283712Y-83942408D01*
X133304113Y-83918522D01*
X133325736Y-83895736D01*
X133348522Y-83874113D01*
X133372408Y-83853712D01*
X133397329Y-83834590D01*
X133423217Y-83816798D01*
X133450000Y-83800385D01*
X133477606Y-83785396D01*
X133505958Y-83771873D01*
X133534979Y-83759852D01*
X133564590Y-83749366D01*
X133594709Y-83740445D01*
X133625253Y-83733111D01*
X133656139Y-83727387D01*
X133687283Y-83723287D01*
X133718598Y-83720822D01*
X133750000Y-83720000D01*
X134450000Y-83720000D01*
X134481402Y-83720822D01*
X134512717Y-83723287D01*
X134543861Y-83727387D01*
X134574747Y-83733111D01*
X134605291Y-83740445D01*
X134635410Y-83749366D01*
X134665021Y-83759852D01*
X134694042Y-83771873D01*
X134722394Y-83785396D01*
X134750000Y-83800385D01*
X134776783Y-83816798D01*
X134802671Y-83834590D01*
X134827592Y-83853712D01*
X134851478Y-83874113D01*
X134874264Y-83895736D01*
X134895887Y-83918522D01*
X134916288Y-83942408D01*
X134935410Y-83967329D01*
X134953202Y-83993217D01*
X134969615Y-84020000D01*
X134984604Y-84047606D01*
X134998127Y-84075958D01*
X135010148Y-84104979D01*
X135020634Y-84134590D01*
X135029555Y-84164709D01*
X135036889Y-84195253D01*
X135042613Y-84226139D01*
X135046713Y-84257283D01*
X135049178Y-84288598D01*
X135050000Y-84320000D01*
X135049178Y-84351402D01*
X135046713Y-84382717D01*
X135042613Y-84413861D01*
X135036889Y-84444747D01*
X135029555Y-84475291D01*
X135020634Y-84505410D01*
X135010148Y-84535021D01*
X134998127Y-84564042D01*
X134984604Y-84592394D01*
X134969615Y-84620000D01*
X134953202Y-84646783D01*
X134935410Y-84672671D01*
X134916288Y-84697592D01*
X134895887Y-84721478D01*
X134874264Y-84744264D01*
X134851478Y-84765887D01*
X134827592Y-84786288D01*
X134802671Y-84805410D01*
X134776783Y-84823202D01*
X134750000Y-84839615D01*
X134722394Y-84854604D01*
X134694042Y-84868127D01*
X134665021Y-84880148D01*
X134635410Y-84890634D01*
X134605291Y-84899555D01*
X134574747Y-84906889D01*
X134543861Y-84912613D01*
X134512717Y-84916713D01*
X134481402Y-84919178D01*
X134450000Y-84920000D01*
X134100000Y-84920000D01*
X134100000Y-84320000D01*
D11*
G36*
X142600000Y-77200000D02*
G01*
X141500000Y-77200000D01*
X141500000Y-74800000D01*
X142600000Y-74800000D01*
X142600000Y-74100000D01*
X142900000Y-74100000D01*
X142900000Y-77900000D01*
X142600000Y-77900000D01*
X142600000Y-77200000D01*
G37*
X142600000Y-77200000D02*
X141500000Y-77200000D01*
X141500000Y-74800000D01*
X142600000Y-74800000D01*
X142600000Y-74100000D01*
X142900000Y-74100000D01*
X142900000Y-77900000D01*
X142600000Y-77900000D01*
X142600000Y-77200000D01*
D12*
X139700000Y-74650000D03*
X139700000Y-76150000D03*
X145700000Y-76150000D03*
X145700000Y-74650000D03*
D13*
X137900000Y-80500000D03*
X137900000Y-79500000D03*
D14*
X137900000Y-78480000D03*
X137900000Y-81520000D03*
D15*
X137900000Y-77250000D03*
X137900000Y-82750000D03*
D16*
X148200000Y-78560000D03*
D17*
X148200000Y-81100000D03*
D18*
X145400000Y-84450000D03*
X145400000Y-82950000D03*
X145400000Y-80450000D03*
X145400000Y-81950000D03*
D19*
X141125200Y-76974999D03*
X141125200Y-76325001D03*
X141125200Y-75674999D03*
X141125200Y-75025001D03*
X144274800Y-75025001D03*
X144274800Y-75674999D03*
X144274800Y-76325001D03*
X144274800Y-76974999D03*
D20*
X144075000Y-85000000D03*
X143425000Y-85000000D03*
X142775000Y-85000000D03*
X142125000Y-85000000D03*
X141475000Y-85000000D03*
X140825000Y-85000000D03*
X140175000Y-85000000D03*
X139525000Y-85000000D03*
X139525000Y-79100000D03*
X140175000Y-79100000D03*
X140825000Y-79100000D03*
X141475000Y-79100000D03*
X142125000Y-79100000D03*
X142775000Y-79100000D03*
X143425000Y-79100000D03*
X144075000Y-79100000D03*
M02*
