M48
; DRILL file {KiCad (5.1.10)-1} date 08/01/21 16:11:56
; FORMAT={3:3/ absolute / metric / suppress leading zeros}
; #@! TF.CreationDate,2021-08-01T16:11:56+09:00
; #@! TF.GenerationSoftware,Kicad,Pcbnew,(5.1.10)-1
FMAT,2
METRIC,TZ
T1C0.300
T2C1.000
%
G90
G05
T1
X133700Y-77000
X133700Y-77700
X133700Y-82200
X133700Y-82900
X134400Y-77000
X134400Y-77700
X134400Y-82200
X134400Y-82900
X135800Y-78400
X135800Y-79200
X135800Y-80000
X135800Y-80800
X135800Y-81600
X136700Y-78400
X136700Y-79200
X136700Y-80000
X136700Y-80800
X136700Y-81600
X139500Y-83500
X140500Y-83367
X141300Y-83300
X141500Y-80400
X141900Y-74400
X141900Y-75200
X141900Y-76000
X141900Y-76800
X141900Y-77600
X142100Y-82300
X142600Y-74400
X142600Y-75200
X142600Y-76000
X142600Y-76800
X142600Y-77600
X146400Y-84600
X146600Y-80800
X146700Y-83500
X147500Y-74600
X148500Y-74600
X148700Y-85400
X149400Y-74600
X149400Y-82700
X149400Y-84700
X149400Y-85400
T2
X148200Y-78560
X148200Y-81100
T0
M30
